<?xml version="1.0" encoding="utf-8"?>
<!-- Generator: Adobe Illustrator 18.1.1, SVG Export Plug-In . SVG Version: 6.00 Build 0)  -->
<!DOCTYPE svg PUBLIC "-//W3C//DTD SVG 1.1//EN" "http://www.w3.org/Graphics/SVG/1.1/DTD/svg11.dtd">
<svg version="1.1" id="Layer_1" xmlns="http://www.w3.org/2000/svg" xmlns:xlink="http://www.w3.org/1999/xlink" x="0px" y="0px"
	 viewBox="0 0 800 600" enable-background="new 0 0 800 600" xml:space="preserve">
<g transform="translate(0, -25)">
	<g>
		<path d="M330.5,233v-0.2c0-3.4-0.7-6.7-1.9-9.8c-1.2-3.1-3.1-5.9-5.4-8.3c-2.4-2.4-5.1-3.9-8.2-5.2c-3-1.3-6.3-1.5-9.7-1.5h-0.1
			c-3.4,0-6.6,0.2-9.6,1.5c-3,1.3-5.7,3-8.2,5.4c-2.3,2.4-3.9,5-5.1,8c-1.2,3-1.7,6.1-1.7,9.6v13.1c0,3.3,0.5,6.5,1.8,9.5
			c1.2,3,2.9,5.7,5.2,8.1c2.4,2.4,5.1,4.5,8.1,5.8c3,1.3,6.2,2.1,9.6,2.1h0.1c3.4,0,6.7-0.8,9.7-2.1c3-1.3,5.8-3.3,8.1-5.7
			c2.4-2.4,4.3-5.3,5.5-8.3c1.2-3.1,1.9-6.4,1.9-9.8V245h-15v0.1c0,1.5-0.3,2.9-0.9,4.3c-0.5,1.3-1.3,2.5-2.2,3.5
			c-0.9,1-2,1.8-3.2,2.4c-1.2,0.6-2.5,0.9-3.9,0.9c-1.4,0-2.7-0.3-4-0.9c-1.2-0.6-2.3-1.4-3.3-2.4c-0.9-1-1.4-2.2-2-3.5
			c-0.5-1.3-0.6-2.8-0.6-4.3v-12.3c0-1.5,0-2.9,0.6-4.3c0.5-1.3,1.2-2.5,2.1-3.5c0.9-1,2-1.8,3.2-2.4c1.2-0.6,2.5-0.9,3.9-0.9
			c1.4,0,2.7,0.3,3.9,0.9c1.2,0.6,2.3,1.4,3.2,2.4c0.9,1,1.7,2.2,2.2,3.5c0.5,1.3,0.9,2.8,0.9,4.3v0.2H330.5z"/>
		<path fill="#1A1A1A" d="M367.9,269.6h-27.1v-61.3h25.8c12.9,0,19.8,7.1,19.8,17.7c0,7-4.9,10.8-6.8,12.1c2.5,1.5,7.7,4.7,7.7,13.3
			C387.3,263.2,379,269.6,367.9,269.6z M365.6,221.8h-9.5v10h9.5c4.2,0,5.5-2.6,5.5-5S369.8,221.8,365.6,221.8z M366.4,245.3h-10.3
			v10.8h10.3c4.2,0,5.6-2.8,5.6-5.4C372,248.1,370.6,245.3,366.4,245.3z"/>
		<path fill="#1A1A1A" d="M397.9,269.6v-61.3h15.3v61.3H397.9z"/>
		<path fill="#1A1A1A" d="M460.5,269.6l-2.9-9.1h-19.1l-3.1,9.1h-16l22.6-61.3h11.8l22.6,61.3H460.5z M448.4,231.5l-5.6,16.4h10.8
			L448.4,231.5z"/>
	</g>
	<g>
		<path d="M195.7,313.5v24.8h-5.3l-7.6-13.5v13.5h-6v-24.8h5.4l7.4,13.4v-13.4H195.7z"/>
		<path d="M214.4,332.6h-7.8l-2.1,5.7h-6.4l9.1-24.8h6.6l9.1,24.8h-6.4L214.4,332.6z M210.6,305l-3.3,6.3h3.7l5-6.3H210.6z
			 M208.2,327.4h4.6l-2.4-8.2L208.2,327.4z"/>
		<path d="M221.6,313.5h6.3l4,15.1l3.9-15.1h6.3l-7.6,24.8h-5.3L221.6,313.5z"/>
		<path d="M245.3,338.3v-24.8h10.3c5.8,0,8.5,4.1,8.5,8.3c0,3.5-1.9,6.9-5.9,8l6,8.6h-7l-5.3-8.3h-0.5v8.3H245.3z M251.3,318.7v6.1
			h4c2,0,2.7-1.6,2.7-3.1s-0.7-3-2.7-3H251.3z"/>
		<path d="M282,313.5h6.1v24.8H282v-9.6h-7.6v9.6h-6v-24.8h6v9.8h7.6V313.5z"/>
		<path d="M298.8,313.5h6.3l4,15.1l3.9-15.1h6.3l-7.6,24.8h-5.3L298.8,313.5z"/>
		<path d="M322.4,313.5h6v24.8h-6V313.5z"/>
		<path d="M343.3,318.7h-10.2v-5.2h18v4.4L340.4,333h10.8v5.3h-18.5v-4.4L343.3,318.7z"/>
		<path d="M355.3,329.2v-15.8h6v15.8c0,2.2,1.9,3.7,3.7,3.7s3.7-1.5,3.7-3.7v-15.8h6v15.8c0,5.7-4.6,9.4-9.8,9.4
			S355.3,334.9,355.3,329.2z"/>
		<path d="M393,332.6h-7.8l-2.1,5.7h-6.4l9.1-24.8h6.6l9.1,24.8h-6.4L393,332.6z M389.2,305l-3.3,6.3h3.7l5-6.3H389.2z M386.8,327.4
			h4.6l-2.4-8.2L386.8,327.4z"/>
		<path d="M403.9,338.3v-24.8h6.1V333h8.9v5.3H403.9z"/>
		<path d="M441.4,313.5v24.8h-5.3l-7.6-13.5v13.5h-6v-24.8h5.4l7.4,13.4v-13.4H441.4z"/>
		<path d="M455.6,305l-5,6.3h-3.7l3.3-6.3H455.6z M446.9,338.3h6v-24.8h-6V338.3z"/>
		<path d="M472.1,313.5h6.1v24.8h-6.1v-9.6h-7.6v9.6h-6v-24.8h6v9.8h7.6V313.5z"/>
		<path d="M494.9,313.1c7.1,0,12.7,5.7,12.7,12.7c0,7-5.6,12.7-12.7,12.7c-7,0-12.6-5.7-12.6-12.7
			C482.3,318.8,488,313.1,494.9,313.1z M494.9,332.5c3.7,0,6.6-3,6.6-6.7c0-3.7-3-6.7-6.6-6.7c-3.7,0-6.6,3-6.6,6.7
			C488.4,329.6,491.3,332.5,494.9,332.5z"/>
		<path d="M525.1,330.9c0.1,1.3,1,2.4,3.1,2.4c1.5,0,3.1-0.7,3.1-2.2c0-0.4,0-1.2-2.5-2.1l-2.9-1c-5.5-1.5-6.5-5-6.5-7.3
			c0-4.5,3.7-7.6,8.7-7.6c4.9,0,8.5,2.8,8.5,7.7h-6c0-1.3-0.8-2.3-2.6-2.3c-1.6,0-2.6,0.8-2.6,2c0,0.5,0.1,1.4,2.3,2l2.8,0.9
			c6.5,2,6.9,5.8,6.9,7.6c0,5.5-5,7.6-9.2,7.6c-5.5,0-9.1-3-9.1-7.7H525.1z"/>
		<path d="M539.4,318.7v-5.3h18.8v5.3h-6.4v19.5h-6v-19.5H539.4z"/>
		<path d="M568.1,338.3v-11.2l-9.7-13.6h7.2l5.5,9l5.6-9h7.1l-9.7,13.8v11.1H568.1z"/>
		<path d="M585.8,338.3v-24.8h6.1V333h8.9v5.3H585.8z"/>
		<path d="M603.9,329.2v-15.8h6v15.8c0,2.2,1.9,3.7,3.7,3.7s3.7-1.5,3.7-3.7v-15.8h6v15.8c0,5.7-4.6,9.4-9.8,9.4
			S603.9,334.9,603.9,329.2z"/>
		<path d="M276.7,356.7h5.1l3,24.8h-6.2l-1.5-13.4l-5,10.5h-4.5l-5-10.5l-1.5,13.4h-6.2l3.1-24.8h5l7,15.1L276.7,356.7z"/>
		<path d="M302.2,375.8h-7.8l-2.1,5.7h-6.4l9.1-24.8h6.6l9.1,24.8h-6.4L302.2,375.8z M296,370.6h4.6l-2.4-8.2L296,370.6z"/>
		<path d="M309.3,361.9v-5.3h18.8v5.3h-6.4v19.5h-6v-19.5H309.3z"/>
		<path d="M331.9,381.5v-24.8H348v5.3h-10.1v4.8h8.9v5.1h-8.9v4.4h10.4v5.3H331.9z M342.2,354.5l4-6.2h-3.9l-2.9,3.2l-2.9-3.2h-3.9
			l3.9,6.2H342.2z"/>
		<path d="M347.1,383.7c1.2,0.4,3.3,0.4,3.5,0.4c1.6,0,2.3-1.3,2.3-2.9v-24.5h6.1v24.5c0,4.6-2.3,8.5-8.4,8.5c-0.7,0-2.5-0.2-4-0.7
			L347.1,383.7z"/>
		<path d="M393.7,381.5h-8.2l-6.5-7.6v7.6h-6v-24.8h6v7.1l4.9-7.1h7.5l-9.3,12.2L393.7,381.5z"/>
		<path d="M398.1,375.2c1.9,0,3.5,1.4,3.5,3.3c0,1.9-1.6,3.3-3.5,3.3c-1.8,0-3.4-1.4-3.4-3.3C394.8,376.5,396.3,375.2,398.1,375.2z"
			/>
		<path d="M409,383.7c1.2,0.4,3.3,0.4,3.5,0.4c1.6,0,2.3-1.3,2.3-2.9v-24.5h6.1v24.5c0,4.6-2.3,8.5-8.4,8.5c-0.7,0-2.5-0.2-4-0.7
			L409,383.7z"/>
		<path d="M426.3,356.7h6v24.8h-6V356.7z"/>
		<path d="M437.9,381.5v-24.8h10.3c5.8,0,8.5,4.1,8.5,8.3c0,3.5-1.9,6.9-5.9,8l6,8.6h-7l-5.3-8.3h-0.5v8.3H437.9z M443.9,361.9v6.1
			h4c2,0,2.7-1.6,2.7-3.1s-0.7-3-2.7-3H443.9z"/>
		<path d="M474.2,375.8h-7.8l-2.1,5.7h-6.4l9.1-24.8h6.6l9.1,24.8h-6.4L474.2,375.8z M470.3,348.2l-3.3,6.3h3.7l5-6.3H470.3z
			 M468,370.6h4.6l-2.4-8.2L468,370.6z"/>
		<path d="M489.8,374.1c0.1,1.3,1,2.4,3.1,2.4c1.5,0,3.1-0.7,3.1-2.2c0-0.4,0-1.2-2.5-2.1l-2.9-1c-5.5-1.5-6.5-5-6.5-7.3
			c0-4.5,3.7-7.6,8.7-7.6c4.9,0,8.5,2.8,8.5,7.7h-6c0-1.3-0.8-2.3-2.6-2.3c-1.6,0-2.6,0.8-2.6,2c0,0.5,0.1,1.4,2.3,2l2.8,0.9
			c6.5,2,6.9,5.8,6.9,7.6c0,5.5-5,7.6-9.2,7.6c-5.5,0-9.1-3-9.1-7.7H489.8z"/>
		<path d="M506.1,381.5v-24.8h16.1v5.3h-10.1v4.8h8.9v5.1h-8.9v4.4h10.4v5.3H506.1z"/>
		<path d="M547.8,381.5h-8.2l-6.5-7.6v7.6h-6v-24.8h6v7.1l4.9-7.1h7.5l-9.3,12.2L547.8,381.5z"/>
	</g>
</g>
</svg>
