<?xml version="1.0" encoding="utf-8"?>
<!-- Generator: Adobe Illustrator 18.1.1, SVG Export Plug-In . SVG Version: 6.00 Build 0)  -->
<!DOCTYPE svg PUBLIC "-//W3C//DTD SVG 1.1//EN" "http://www.w3.org/Graphics/SVG/1.1/DTD/svg11.dtd">
<svg version="1.1" id="Layer_1" xmlns="http://www.w3.org/2000/svg" xmlns:xlink="http://www.w3.org/1999/xlink" x="0px" y="0px"
	 viewBox="0 0 800 600" enable-background="new 0 0 800 600" xml:space="preserve">
<rect x="436.6" y="215" width="66" height="171"/>
<polygon points="641,214 584.7,214 517.2,386 573,386 581.5,365 643.4,365 652.7,386 708,386 "/>
<path d="M184.1,310.3c-5.9,0-10.6-4.8-10.6-10.6c0-5.9,4.8-10.6,10.6-10.6c3.5,0,6.6,1.7,8.5,4.3l68.3-44.9
	c-16.7-24.8-45-41.2-77.1-41.2c-51.3,0-92.9,41.6-92.9,92.9c0,51.3,41.6,92.9,92.9,92.9c32,0,60.1-16.1,76.8-40.7l-67.6-47.1
	C191.3,308.3,187.9,310.3,184.1,310.3z"/>
<path d="M395.6,299.3c10.9-9.1,17.7-22.2,17.7-36.9c0-27.3-23.7-49.4-53-49.4h-81.8v173h81.8c29.3,0,53-22.3,53-49.6
	C413.4,321.7,406.5,308.4,395.6,299.3z"/>
</svg>
