<?xml version="1.0" encoding="utf-8"?>
<!-- Generator: Adobe Illustrator 18.1.1, SVG Export Plug-In . SVG Version: 6.00 Build 0)  -->
<!DOCTYPE svg PUBLIC "-//W3C//DTD SVG 1.1//EN" "http://www.w3.org/Graphics/SVG/1.1/DTD/svg11.dtd">
<svg version="1.1" id="Layer_1" xmlns="http://www.w3.org/2000/svg" xmlns:xlink="http://www.w3.org/1999/xlink" x="0px" y="0px"
	 viewBox="0 0 800 600" enable-background="new 0 0 800 600" xml:space="preserve">
<g>
	<g>
		<g>
			<path d="M115.5,297.8L115.5,297.8c0-3.4-0.9-6.7-2.1-9.7c-1.2-3.1-3.2-5.9-5.5-8.3c-2.4-2.4-5.2-4-8.2-5.3
				c-3-1.3-6.4-1.6-9.8-1.6h-0.1c-3.4,0-6.6,0.3-9.6,1.6c-3,1.3-5.7,3-8.2,5.5c-2.3,2.4-3.8,5-5,8c-1.2,3-1.6,6.2-1.6,9.6v13.1
				c0,3.3,0.4,6.5,1.6,9.5c1.2,3,2.8,5.7,5.1,8.1c2.4,2.4,5.1,4.3,8.1,5.7c3,1.3,6.2,2,9.6,2h0.1c3.4,0,6.7-0.7,9.7-2
				c3-1.3,5.8-3.2,8.1-5.6c2.4-2.4,4.4-5.2,5.6-8.3c1.2-3.1,2.1-6.3,2.1-9.8v-0.3h-15v0.3c0,1.5-0.5,2.9-1,4.3
				c-0.5,1.3-1.4,2.5-2.3,3.5c-0.9,1-2.1,1.8-3.3,2.4c-1.2,0.6-2.5,0.9-3.9,0.9c-1.4,0-2.7-0.3-4-0.9c-1.2-0.6-2.3-1.4-3.3-2.4
				c-0.9-1-1.3-2.2-1.8-3.5c-0.5-1.3-0.4-2.8-0.4-4.3v-12.3c0-1.5-0.1-2.9,0.4-4.3c0.5-1.3,1.1-2.5,2-3.5c0.9-1,1.9-1.8,3.2-2.4
				c1.2-0.6,2.5-0.9,3.9-0.9c1.4,0,2.7,0.3,3.9,0.9c1.2,0.6,2.3,1.4,3.2,2.4c0.9,1,1.9,2.2,2.4,3.5c0.5,1.3,1,2.8,1,4.3v0H115.5z"/>
			<path d="M152.6,334.6h-27.1v-61.3h25.8c12.9,0,19.8,7.1,19.8,17.7c0,7-4.9,10.8-6.8,12.1c2.5,1.5,7.7,4.7,7.7,13.3
				C172,328.3,163.7,334.6,152.6,334.6z M150.3,286.9h-9.5v10h9.5c4.2,0,5.5-2.6,5.5-5C155.8,289.4,154.5,286.9,150.3,286.9z
				 M151.1,310.4h-10.3v10.8h10.3c4.2,0,5.6-2.8,5.6-5.4C156.7,313.1,155.3,310.4,151.1,310.4z"/>
			<path d="M182.6,334.6v-61.3h15.3v61.3H182.6z"/>
			<path d="M245.2,334.6l-2.9-9.1h-19.1l-3.1,9.1h-16l22.6-61.3h11.8l22.6,61.3H245.2z M233.1,296.6l-5.6,16.4h10.8L233.1,296.6z"/>
		</g>
	</g>
	<g>
		<path d="M318.5,290.4c-2,3-5.4,5-9.5,5c-6.5,0-11.4-5.2-11.4-11.6c0-6.5,4.9-11.7,11.4-11.7c4.1,0,7.5,1.9,9.4,4.8l-3.9,2.7
			c-1.2-1.8-3.2-3-5.5-3c-3.8,0-6.6,3.2-6.6,7.1c0,3.9,2.8,7.1,6.6,7.1c2.4,0,4.4-1.3,5.7-3.1L318.5,290.4z"/>
		<path d="M321.9,272.4h14.4v4.2h-9.5v5.2h8.4v4.2h-8.4v4.8h9.8v4.2h-14.7V272.4z"/>
		<path d="M357.9,295h-4.3l-7.9-13.7V295h-4.8v-22.7h4.4l7.8,13.6v-13.6h4.8V295z"/>
		<path d="M361.5,272.4h17.1v4.3h-6.1V295h-4.9v-18.3h-6.1V272.4z"/>
		<path d="M399,295h-5.8l-5.1-7.8H387v7.8h-4.8v-22.7h9.3c5.1,0,7.5,3.7,7.5,7.4c0,3.2-1.8,6.4-5.7,7.2L399,295z M387,276.6v6.4h4.1
			c1.9,0,2.9-1.7,2.9-3.2c0-1.4-0.9-3.2-2.7-3.2H387z"/>
		<path d="M415.7,287v-14.6h4.8V287c0,5.1-4.1,8.4-8.8,8.4c-4.7,0-8.8-3.3-8.8-8.4v-14.6h4.9V287c0,2.3,1.9,3.9,3.9,3.9
			C413.8,290.8,415.7,289.3,415.7,287z"/>
		<path d="M444.8,272.4h4l2.8,22.7h-4.8l-1.6-13.6l-5.3,11h-3.7l-5.3-11l-1.6,13.6h-4.8l2.8-22.7h4L438,287L444.8,272.4z"/>
		<path d="M463.7,272.4h9.3c5.2,0,7.5,3.7,7.5,7.4c0,3.8-2.3,7.4-7.5,7.4h-4.5v7.8h-4.8V272.4z M468.5,276.6v6.4h4.2
			c1.9,0,2.9-1.7,2.9-3.2c0-1.4-0.9-3.2-2.7-3.2H468.5z"/>
		<path d="M500.7,295h-5.8l-5.1-7.8h-1.1v7.8h-4.8v-22.7h9.3c5.1,0,7.5,3.7,7.5,7.4c0,3.2-1.8,6.4-5.7,7.2L500.7,295z M488.7,276.6
			v6.4h4.1c1.9,0,2.9-1.7,2.9-3.2c0-1.4-0.9-3.2-2.7-3.2H488.7z"/>
		<path d="M515,272.1c6.5,0,11.5,5.2,11.5,11.7c0,6.4-5.1,11.6-11.5,11.6c-6.4,0-11.5-5.2-11.5-11.6
			C503.6,277.3,508.6,272.1,515,272.1z M515,290.6c3.8,0,6.7-3.1,6.7-6.8c0-3.8-3-6.9-6.7-6.9c-3.8,0-6.7,3.1-6.7,6.9
			C508.4,287.5,511.3,290.6,515,290.6z"/>
		<path d="M541.9,289.7l-2,5.4h-5.1l8.4-22.7h5.2l8.4,22.7h-5.1l-2-5.4H541.9z M548.2,285.5l-2.4-7.9l-2.3,7.9H548.2z"/>
		<path d="M576.3,295H572l-7.9-13.7V295h-4.8v-22.7h4.4l7.8,13.6v-13.6h4.8V295z"/>
		<path d="M585.9,289.7l-2,5.4h-5.1l8.4-22.7h5.2l8.4,22.7h-5.1l-2-5.4H585.9z M592.2,285.5l-2.4-7.9l-2.3,7.9H592.2z"/>
		<path d="M603.3,272.4h4.8v18.4h8.5v4.2h-13.3V272.4z"/>
		<path d="M623,295v-10.3l-8.8-12.4h5.7l5.5,8.5l5.5-8.5h5.7l-8.8,12.5V295H623z M631.2,264.5l-4.9,5.5H623l3.6-5.5H631.2z"/>
		<path d="M647.9,276.6H638v-4.2h16.2v3.7l-10.5,14.8h10.5v4.2h-16.6v-3.7L647.9,276.6z"/>
		<path d="M671,287v-14.6h4.8V287c0,5.1-4.1,8.4-8.8,8.4c-4.7,0-8.8-3.3-8.8-8.4v-14.6h4.9V287c0,2.3,1.9,3.9,3.9,3.9
			C669,290.8,671,289.3,671,287z"/>
		<path d="M311.6,322.4c3,0.8,4.3,3.3,4.3,5.2c0,3.8-2.7,6.9-7.2,6.9h-9.7v-22.7h9.1c4.1,0,6.7,2.4,6.7,6.3
			C314.7,319.7,313.9,321.5,311.6,322.4z M307.5,320.8c1.3,0,2.1-1,2.1-2.3c0-1.4-0.7-2.4-2.1-2.4h-3.8v4.7H307.5z M303.7,324.8v5.5
			h4.6c1.6,0,2.4-1.4,2.4-2.8c0-1.3-0.8-2.7-2.5-2.7H303.7z"/>
		<path d="M324.7,311.9v22.7h-4.8v-22.7H324.7z"/>
		<path d="M340.2,311.6c6.5,0,11.5,5.2,11.5,11.7c0,6.4-5.1,11.6-11.5,11.6c-6.4,0-11.5-5.2-11.5-11.6
			C328.7,316.8,333.8,311.6,340.2,311.6z M340.2,330.1c3.8,0,6.7-3.1,6.7-6.8c0-3.8-3-6.9-6.7-6.9s-6.7,3.1-6.7,6.9
			C333.5,327,336.4,330.1,340.2,330.1z"/>
		<path d="M374.9,311.9h4l2.8,22.7h-4.8l-1.6-13.6l-5.3,11h-3.7l-5.3-11l-1.6,13.6h-4.8l2.8-22.7h4l6.8,14.6L374.9,311.9z"/>
		<path d="M385.8,311.9h14.4v4.2h-9.5v5.2h8.4v4.2h-8.4v4.8h9.8v4.2h-14.7V311.9z"/>
		<path d="M404.7,334.6v-22.7h8.9c6.5,0,10.2,4.9,10.2,11.4c0,6.4-3.7,11.3-10.2,11.3H404.7z M409.5,330.2h4.1
			c3.6,0,5.4-3.2,5.4-6.9c0-3.8-1.8-7-5.4-7h-4.1V330.2z"/>
		<path d="M432.8,311.9v22.7H428v-22.7H432.8z"/>
		<path d="M457.8,329.9c-2,3-5.4,5-9.5,5c-6.5,0-11.4-5.2-11.4-11.6c0-6.5,4.9-11.7,11.4-11.7c4.1,0,7.5,1.9,9.4,4.8l-3.9,2.7
			c-1.2-1.8-3.2-3-5.5-3c-3.8,0-6.6,3.2-6.6,7.1c0,3.9,2.8,7.1,6.6,7.1c2.4,0,4.4-1.3,5.7-3.1L457.8,329.9z"/>
		<path d="M469.3,304l-4.9,5.5h-3.3l3.6-5.5H469.3z M466,311.9v22.7h-4.8v-22.7H466z"/>
		<path d="M488.3,334.6H484l-7.9-13.7v13.7h-4.8v-22.7h4.4l7.8,13.6v-13.6h4.8V334.6z"/>
		<path d="M497.3,327.9c0.1,1.4,1.2,2.7,3.4,2.7c1.9,0,3.3-0.9,3.3-2.4c0-1-0.4-1.9-2.7-2.6l-2.7-0.8c-5-1.5-5.9-4.5-5.9-6.5
			c0-4,3.5-6.8,7.8-6.8c4.4,0,7.7,2.6,7.7,6.9h-4.8c0-1.5-1-2.6-2.9-2.6c-1.7,0-2.9,0.9-2.9,2.3c0,0.6,0.2,1.7,2.4,2.3l2.7,0.9
			c5.5,1.6,6.3,4.7,6.2,6.8c-0.1,4.5-4.1,6.6-8.2,6.6c-4.9,0-8.2-2.9-8.2-7H497.3z"/>
		<path d="M530.8,334.6h-6.3l-6.8-7.7v7.7h-4.9v-22.7h4.9v7.4l5.4-7.4h5.7l-8.6,11.2L530.8,334.6z"/>
		<path d="M532.9,311.9h14.4v4.2h-9.5v5.2h8.4v4.2h-8.4v4.8h9.8v4.2h-14.7V311.9z M540.8,304l-3.6,5.5h3.3l4.9-5.5H540.8z"/>
		<path d="M569.6,311.9v22.7h-4.9v-9.1h-8.1v9.1h-4.8v-22.7h4.8v9.3h8.1v-9.3H569.6z"/>
		<path d="M585.1,311.6c6.5,0,11.5,5.2,11.5,11.7c0,6.4-5.1,11.6-11.5,11.6c-6.4,0-11.5-5.2-11.5-11.6
			C573.6,316.8,578.6,311.6,585.1,311.6z M585.1,330.1c3.8,0,6.7-3.1,6.7-6.8c0-3.8-3-6.9-6.7-6.9c-3.8,0-6.7,3.1-6.7,6.9
			C578.4,327,581.3,330.1,585.1,330.1z"/>
		<path d="M618.8,311.6c6.5,0,11.5,5.2,11.5,11.7c0,6.4-5.1,11.6-11.5,11.6c-6.4,0-11.5-5.2-11.5-11.6
			C607.3,316.8,612.4,311.6,618.8,311.6z M618.8,330.1c3.8,0,6.7-3.1,6.7-6.8c0-3.8-3-6.9-6.7-6.9c-3.8,0-6.7,3.1-6.7,6.9
			C612.1,327,615.1,330.1,618.8,330.1z"/>
		<path d="M647.1,322.4c3,0.8,4.3,3.3,4.3,5.2c0,3.8-2.7,6.9-7.2,6.9h-9.7v-22.7h9.1c4.1,0,6.7,2.4,6.7,6.3
			C650.1,319.7,649.4,321.5,647.1,322.4z M643,320.8c1.3,0,2.1-1,2.1-2.3c0-1.4-0.7-2.4-2.1-2.4h-3.8v4.7H643z M639.2,324.8v5.5h4.6
			c1.6,0,2.4-1.4,2.4-2.8c0-1.3-0.8-2.7-2.5-2.7H639.2z"/>
		<path d="M672.1,334.6h-5.8l-5.1-7.8h-1.1v7.8h-4.8v-22.7h9.3c5.1,0,7.5,3.7,7.5,7.4c0,3.2-1.8,6.4-5.7,7.2L672.1,334.6z
			 M660.2,316.1v6.4h4.1c1.9,0,2.9-1.7,2.9-3.2c0-1.4-0.9-3.2-2.7-3.2H660.2z"/>
		<path d="M680.6,329.2l-2,5.4h-5.1l8.4-22.7h5.2l8.4,22.7h-5.1l-2-5.4H680.6z M686.9,325l-2.4-7.9l-2.3,7.9H686.9z"/>
		<path d="M707.1,316.1h-9.9v-4.2h16.2v3.7l-10.5,14.8h10.5v4.2h-16.6v-3.7L707.1,316.1z"/>
		<path d="M730.1,326.5v-14.6h4.8v14.6c0,5.1-4.1,8.4-8.8,8.4c-4.7,0-8.8-3.3-8.8-8.4v-14.6h4.9v14.6c0,2.3,1.9,3.9,3.9,3.9
			C728.2,330.3,730.1,328.8,730.1,326.5z"/>
	</g>
</g>
</svg>
