<?xml version="1.0" encoding="utf-8"?>
<!-- Generator: Adobe Illustrator 18.1.1, SVG Export Plug-In . SVG Version: 6.00 Build 0)  -->
<!DOCTYPE svg PUBLIC "-//W3C//DTD SVG 1.1//EN" "http://www.w3.org/Graphics/SVG/1.1/DTD/svg11.dtd">
<svg version="1.1" id="Layer_1" xmlns="http://www.w3.org/2000/svg" xmlns:xlink="http://www.w3.org/1999/xlink" x="0px" y="0px"
	 viewBox="0 0 800 600" enable-background="new 0 0 800 600" xml:space="preserve">
<g fill="white">
	<g>
		<path d="M352.3,285.7c-2.3,3.5-6.2,5.8-10.8,5.8c-7.1,0-12.9-5.8-12.9-13c0-7.2,5.8-13,12.9-13c4.5,0,8.5,2.3,10.8,5.8
			c0.4-0.3-5.1,3.6-5.1,3.6c-1.2-1.9-3.3-3.2-5.7-3.2c-3.7,0-6.7,3.1-6.7,6.8c0,3.8,2.9,6.8,6.7,6.8c2.4,0,4.5-1.2,5.7-3.2
			L352.3,285.7z"/>
		<path d="M356.1,291.2v-25.3h16.4v5.4h-10.3v4.9h9v5.3h-9v4.5h10.6v5.4H356.1z"/>
		<path d="M396.7,265.9v25.3h-5.4l-7.8-13.8v13.8h-6.1v-25.3h5.5l7.6,13.6v-13.6H396.7z"/>
		<path d="M400.5,271.3v-5.4h19.2v5.4h-6.5v20h-6.1v-20H400.5z"/>
		<path d="M423.5,291.2v-25.3H434c6,0,8.7,4.2,8.7,8.5c0,3.6-1.9,7.1-6.1,8.1l6.2,8.7h-7.1l-5.4-8.5h-0.6v8.5H423.5z M429.7,271.3
			v6.2h4c2,0,2.8-1.6,2.8-3.1c0-1.5-0.7-3.1-2.8-3.1H429.7z"/>
		<path d="M447.1,291.2v-25.3h16.4v5.4h-10.3v4.9h9v5.3h-9v4.5h10.6v5.4H447.1z"/>
		<path d="M477.2,291.2v-25.3h16.3v5.4h-10.1v4.9h8v5.3h-8v9.8H477.2z"/>
		<path d="M508.5,265.6c7.2,0,12.9,5.8,12.9,13c0,7.1-5.7,13-12.9,13c-7.1,0-12.9-5.8-12.9-13C495.6,271.4,501.4,265.6,508.5,265.6z
			 M508.5,285.4c3.7,0,6.8-3,6.8-6.8c0-3.8-3-6.8-6.8-6.8c-3.7,0-6.7,3.1-6.7,6.8C501.8,282.4,504.7,285.4,508.5,285.4z"/>
		<path d="M525.6,291.2v-25.3h10.5c6,0,8.7,4.2,8.7,8.5c0,3.6-1.9,7.1-6.1,8.1l6.2,8.7h-7.1l-5.4-8.5h-0.6v8.5H525.6z M531.8,271.3
			v6.2h4c2,0,2.8-1.6,2.8-3.1c0-1.5-0.7-3.1-2.8-3.1H531.8z"/>
		<path d="M572.5,277.7c3.5,0.5,4.9,3.6,4.9,6c0,3.7-2.2,7.5-8.3,7.5H558v-25.3h10.4c4.7,0,7.8,2.7,7.8,6.8
			C576.1,274.1,575.4,276.9,572.5,277.7z M567.5,275.7c1.2,0,2.1-0.8,2.1-2.1c0-1.3-0.6-2.3-2.1-2.3h-3.4v4.4H567.5z M564.2,280.7
			v5.1h3.9c1.9,0,2.8-1.3,2.8-2.6c0-1.2-0.8-2.5-2.9-2.5H564.2z"/>
		<path d="M581.6,265.9h6.1v25.3h-6.1V265.9z"/>
		<path d="M604.9,265.6c7.2,0,12.9,5.8,12.9,13c0,7.1-5.7,13-12.9,13c-7.1,0-12.9-5.8-12.9-13C592,271.4,597.8,265.6,604.9,265.6z
			 M604.9,285.4c3.7,0,6.8-3,6.8-6.8c0-3.8-3-6.8-6.8-6.8c-3.7,0-6.7,3.1-6.7,6.8C598.2,282.4,601.2,285.4,604.9,285.4z"/>
		<path d="M642.9,265.9h5.2l3.1,25.3h-6.3l-1.5-13.6l-5.1,10.7h-4.6l-5.1-10.7l-1.6,13.6h-6.3l3.1-25.3h5.1l7.1,15.4L642.9,265.9z"
			/>
		<path d="M655.4,291.2v-25.3h16.4v5.4h-10.3v4.9h9v5.3h-9v4.5h10.6v5.4H655.4z"/>
		<path d="M674.9,271.3v-5.4h19.2v5.4h-6.5v20h-6.1v-20H674.9z"/>
		<path d="M698,291.2v-25.3h10.5c6,0,8.7,4.2,8.7,8.5c0,3.6-1.9,7.1-6.1,8.1l6.2,8.7h-7.1l-5.4-8.5h-0.6v8.5H698z M704.1,271.3v6.2
			h4c2,0,2.8-1.6,2.8-3.1c0-1.5-0.7-3.1-2.8-3.1H704.1z"/>
		<path d="M721.5,265.9h6.1v25.3h-6.1V265.9z"/>
		<path d="M755.6,285.7c-2.3,3.5-6.2,5.8-10.8,5.8c-7.1,0-12.9-5.8-12.9-13c0-7.2,5.8-13,12.9-13c4.5,0,8.5,2.3,10.8,5.8
			c0.4-0.3-5.1,3.6-5.1,3.6c-1.2-1.9-3.3-3.2-5.7-3.2c-3.7,0-6.7,3.1-6.7,6.8c0,3.8,2.9,6.8,6.7,6.8c2.4,0,4.5-1.2,5.7-3.2
			L755.6,285.7z"/>
		<path d="M330.1,310h6.1v25.3h-6.1V310z"/>
		<path d="M362.9,310h5.2l3.1,25.3h-6.3l-1.5-13.6l-5.1,10.7h-4.6l-5.1-10.7l-1.6,13.6h-6.3l3.1-25.3h5.1l7.1,15.4L362.9,310z"/>
		<path d="M388.9,329.5h-8l-2.1,5.8h-6.6l9.3-25.3h6.7l9.3,25.3H391L388.9,329.5z M382.6,324.2h4.7l-2.5-8.3L382.6,324.2z"/>
		<path d="M416.5,318c-1.3-1.6-3.2-2.6-5.3-2.6c-3.9,0-6.8,3.3-6.8,7.3c0,4,3,7.4,6.8,7.4c3,0,5.3-1,5.8-3.4h-7.1v-4.9h13.8
			c0,9.7-5.2,13.9-12.5,13.9c-7.3,0-13-5.8-13-13c0-7.2,5.7-13,13-13c4.1,0,7.7,1.8,9.9,4.5L416.5,318z"/>
		<path d="M427.3,335.3V310h16.4v5.4h-10.3v4.9h9v5.3h-9v4.5h10.6v5.4H427.3z"/>
		<path d="M469.7,329.5h-8l-2.1,5.8H453l9.3-25.3h6.7l9.3,25.3h-6.5L469.7,329.5z M463.3,324.2h4.7l-2.5-8.3L463.3,324.2z"/>
		<path d="M500,310v25.3h-5.4l-7.8-13.8v13.8h-6.1V310h5.5l7.6,13.6V310H500z"/>
		<path d="M519.1,329.5h-8l-2.1,5.8h-6.6l9.3-25.3h6.7l9.3,25.3h-6.5L519.1,329.5z M512.8,324.2h4.7l-2.5-8.3L512.8,324.2z"/>
		<path d="M530.1,335.3V310h6.2v20h9.1v5.4H530.1z"/>
		<path d="M552.4,335.3v-11.4l-9.9-13.9h7.3l5.6,9.2l5.7-9.2h7.3l-9.9,14v11.3H552.4z"/>
		<path d="M574.7,327.8c0.1,1.4,1,2.5,3.1,2.5c1.6,0,3.1-0.7,3.1-2.3c0-0.4,0-1.2-2.5-2.1l-3-1c-5.7-1.5-6.6-5.1-6.6-7.5
			c0-4.6,3.8-7.8,8.9-7.8c5,0,8.7,2.9,8.7,7.9h-6.1c0-1.4-0.8-2.4-2.6-2.4c-1.7,0-2.7,0.8-2.7,2c0,0.5,0.1,1.4,2.4,2.1l2.9,0.9
			c6.7,2.1,7,5.9,7,7.7c0,5.6-5.1,7.7-9.4,7.7c-5.7,0-9.3-3.1-9.3-7.9H574.7z"/>
		<path d="M591.4,310h6.1v25.3h-6.1V310z"/>
		<path d="M608,327.8c0.1,1.4,1,2.5,3.1,2.5c1.6,0,3.1-0.7,3.1-2.3c0-0.4,0-1.2-2.5-2.1l-3-1c-5.7-1.5-6.6-5.1-6.6-7.5
			c0-4.6,3.8-7.8,8.9-7.8c5,0,8.7,2.9,8.7,7.9h-6.1c0-1.4-0.8-2.4-2.6-2.4c-1.7,0-2.7,0.8-2.7,2c0,0.5,0.1,1.4,2.4,2.1l2.9,0.9
			c6.7,2.1,7,5.9,7,7.7c0,5.6-5.1,7.7-9.4,7.7c-5.7,0-9.3-3.1-9.3-7.9H608z"/>
	</g>
	<g>
		<rect x="185.6" y="264.8" width="27" height="71"/>
		<polygon points="269.2,264.8 246.2,264.8 218.6,335.8 241.4,335.8 244.9,326.8 270.2,326.8 274,335.8 296.6,335.8 		"/>
		<path d="M82.4,304.1c-2.4,0-4.3-1.9-4.3-4.3c0-2.4,1.9-4.3,4.3-4.3c1.4,0,2.7,0.7,3.5,1.8l27.9-18.3C107,268.7,95.5,262,82.3,262
			c-21,0-38,17-38,38c0,21,17,38,38,38c13.1,0,24.6-6.6,31.4-16.6l-27.6-19.2C85.4,303.3,84,304.1,82.4,304.1z"/>
		<path d="M168.9,299.6c4.4-3.7,7.3-8.8,7.3-14.8c0-11.2-9.7-20-21.7-20h-33.9v71h33.9c12,0,21.7-9.5,21.7-20.7
			C176.1,309.1,173.3,303.3,168.9,299.6z"/>
	</g>
</g>
</svg>
