<?xml version="1.0" encoding="utf-8"?>
<!-- Generator: Adobe Illustrator 18.1.1, SVG Export Plug-In . SVG Version: 6.00 Build 0)  -->
<!DOCTYPE svg PUBLIC "-//W3C//DTD SVG 1.1//EN" "http://www.w3.org/Graphics/SVG/1.1/DTD/svg11.dtd">
<svg version="1.1" id="Layer_1" xmlns="http://www.w3.org/2000/svg" xmlns:xlink="http://www.w3.org/1999/xlink" x="0px" y="0px"
	 viewBox="0 0 800 600" enable-background="new 0 0 800 600" xml:space="preserve">
<g transform="translate(0, -25)">
	<g>
		<g>
			<path d="M115.5,297.8L115.5,297.8c0-3.4-0.9-6.7-2.1-9.7c-1.2-3.1-3.2-5.9-5.5-8.3c-2.4-2.4-5.2-4-8.2-5.3
				c-3-1.3-6.4-1.6-9.8-1.6h-0.1c-3.4,0-6.6,0.3-9.6,1.6c-3,1.3-5.7,3-8.2,5.5c-2.3,2.4-3.8,5-5,8c-1.2,3-1.6,6.2-1.6,9.6v13.1
				c0,3.3,0.4,6.5,1.6,9.5c1.2,3,2.8,5.7,5.1,8.1c2.4,2.4,5.1,4.3,8.1,5.7c3,1.3,6.2,2,9.6,2h0.1c3.4,0,6.7-0.7,9.7-2
				c3-1.3,5.8-3.2,8.1-5.6c2.4-2.4,4.4-5.2,5.6-8.3c1.2-3.1,2.1-6.3,2.1-9.8v-0.3h-15v0.3c0,1.5-0.5,2.9-1,4.3
				c-0.5,1.3-1.4,2.5-2.3,3.5c-0.9,1-2.1,1.8-3.3,2.4c-1.2,0.6-2.5,0.9-3.9,0.9c-1.4,0-2.7-0.3-4-0.9c-1.2-0.6-2.3-1.4-3.3-2.4
				c-0.9-1-1.3-2.2-1.8-3.5c-0.5-1.3-0.4-2.8-0.4-4.3v-12.3c0-1.5-0.1-2.9,0.4-4.3c0.5-1.3,1.1-2.5,2-3.5c0.9-1,1.9-1.8,3.2-2.4
				c1.2-0.6,2.5-0.9,3.9-0.9c1.4,0,2.7,0.3,3.9,0.9c1.2,0.6,2.3,1.4,3.2,2.4c0.9,1,1.9,2.2,2.4,3.5c0.5,1.3,1,2.8,1,4.3v0H115.5z"/>
			<path d="M152.6,334.6h-27.1v-61.3h25.8c12.9,0,19.8,7.1,19.8,17.7c0,7-4.9,10.8-6.8,12.1c2.5,1.5,7.7,4.7,7.7,13.3
				C172,328.3,163.7,334.6,152.6,334.6z M150.3,286.9h-9.5v10h9.5c4.2,0,5.5-2.6,5.5-5C155.8,289.4,154.5,286.9,150.3,286.9z
				 M151.1,310.4h-10.3v10.8h10.3c4.2,0,5.6-2.8,5.6-5.4C156.7,313.1,155.3,310.4,151.1,310.4z"/>
			<path d="M182.6,334.6v-61.3h15.3v61.3H182.6z"/>
			<path d="M245.2,334.6l-2.9-9.1h-19.1l-3.1,9.1h-16l22.6-61.3h11.8l22.6,61.3H245.2z M233.1,296.6l-5.6,16.4h10.8L233.1,296.6z"/>
		</g>
	</g>
</g>
<g transform="translate(0, -25)">
	<path d="M318.5,291.1c-1.9,2.9-5.3,4.8-9.3,4.8c-6.3,0-11.1-5.1-11.1-11.3c0-6.3,4.8-11.3,11.1-11.3c3.9,0,7.3,1.9,9.2,4.7
		l-3.8,2.6c-1.2-1.7-3.1-2.9-5.4-2.9c-3.7,0-6.4,3.1-6.4,6.9c0,3.8,2.7,6.9,6.4,6.9c2.3,0,4.3-1.2,5.5-3L318.5,291.1z"/>
	<path d="M321.8,273.5h13.9v4.1h-9.3v5h8.1v4.1h-8.1v4.7h9.6v4.1h-14.2V273.5z"/>
	<path d="M356.8,295.6h-4.2l-7.7-13.3v13.3h-4.7v-22h4.3l7.5,13.2v-13.2h4.7V295.6z"/>
	<path d="M360.3,273.5h16.6v4.2H371v17.8h-4.7v-17.8h-5.9V273.5z"/>
	<path d="M396.7,295.6h-5.6l-4.9-7.6h-1.1v7.6h-4.7v-22h9c5,0,7.3,3.6,7.3,7.2c0,3.1-1.7,6.2-5.5,7L396.7,295.6z M385.1,277.7v6.2h4
		c1.8,0,2.8-1.7,2.8-3.1c0-1.4-0.9-3.1-2.7-3.1H385.1z"/>
	<path d="M412.9,287.7v-14.2h4.7v14.2c0,5-4,8.2-8.5,8.2c-4.5,0-8.6-3.2-8.6-8.2v-14.2h4.8v14.2c0,2.3,1.8,3.8,3.8,3.8
		C411.1,291.5,412.9,290,412.9,287.7z"/>
	<path d="M441.2,273.5h3.9l2.7,22h-4.7l-1.5-13.2l-5.1,10.7h-3.6l-5.2-10.7l-1.6,13.2h-4.7l2.7-22h3.9l6.7,14.2L441.2,273.5z"/>
	<path d="M462.8,290.4l-2,5.2h-5l8.2-22h5.1l8.2,22h-4.9l-2-5.2H462.8z M468.9,286.3l-2.3-7.7l-2.2,7.7H468.9z"/>
	<path d="M496.3,295.6h-4.2l-7.7-13.3v13.3h-4.7v-22h4.3l7.5,13.2v-13.2h4.7V295.6z"/>
	<path d="M505.6,290.4l-2,5.2h-5l8.2-22h5.1l8.2,22h-4.9l-2-5.2H505.6z M511.7,286.3l-2.3-7.7l-2.2,7.7H511.7z"/>
	<path d="M522.5,273.5h4.7v17.9h8.3v4.1h-13V273.5z"/>
	<path d="M541.7,295.6v-10l-8.5-12.1h5.6l5.3,8.3l5.4-8.3h5.6l-8.5,12.1v9.9H541.7z M549.6,265.9l-4.7,5.4h-3.2l3.5-5.4H549.6z"/>
	<path d="M565.9,277.7h-9.7v-4.1H572v3.5l-10.2,14.4H572v4.1h-16.1V292L565.9,277.7z"/>
	<path d="M581.5,295.6v-10l-8.5-12.1h5.6l5.3,8.3l5.4-8.3h5.6l-8.5,12.1v9.9H581.5z"/>
	<path d="M311.8,322.2c2.9,0.7,4.2,3.2,4.2,5c0,3.6-2.7,6.7-7,6.7h-9.5v-22h8.8c4,0,6.5,2.4,6.5,6.1
		C314.8,319.5,314.1,321.3,311.8,322.2z M307.8,320.6c1.2,0,2-1,2-2.3c0-1.4-0.7-2.3-2.1-2.3h-3.6v4.6H307.8z M304.2,324.5v5.3h4.5
		c1.6,0,2.4-1.4,2.4-2.7c0-1.2-0.8-2.6-2.5-2.6H304.2z"/>
	<path d="M324.5,311.9v22h-4.7v-22H324.5z"/>
	<path d="M339.6,311.7c6.3,0,11.2,5.1,11.2,11.3c0,6.2-4.9,11.3-11.2,11.3c-6.2,0-11.2-5.1-11.2-11.3
		C328.4,316.7,333.3,311.7,339.6,311.7z M339.6,329.7c3.6,0,6.5-3,6.5-6.7c0-3.7-2.9-6.7-6.5-6.7s-6.5,3-6.5,6.7
		C333.1,326.7,335.9,329.7,339.6,329.7z"/>
	<path d="M373.3,311.9h3.9l2.7,22h-4.7l-1.5-13.2l-5.1,10.7h-3.6l-5.2-10.7l-1.6,13.2h-4.7l2.7-22h3.9l6.7,14.2L373.3,311.9z"/>
	<path d="M383.9,311.9h13.9v4.1h-9.3v5h8.1v4.1h-8.1v4.7h9.6v4.1h-14.2V311.9z"/>
	<path d="M402.3,334v-22h8.6c6.3,0,9.9,4.8,9.9,11.1c0,6.2-3.6,11-9.9,11H402.3z M407,329.7h4c3.5,0,5.3-3.1,5.3-6.7
		c0-3.6-1.8-6.8-5.3-6.8h-4V329.7z"/>
	<path d="M429.6,311.9v22H425v-22H429.6z"/>
	<path d="M453.9,329.5c-1.9,2.9-5.3,4.8-9.3,4.8c-6.3,0-11.1-5.1-11.1-11.3c0-6.3,4.8-11.3,11.1-11.3c3.9,0,7.3,1.9,9.2,4.7L450,319
		c-1.2-1.7-3.1-2.9-5.4-2.9c-3.7,0-6.4,3.1-6.4,6.9c0,3.8,2.7,6.9,6.4,6.9c2.3,0,4.3-1.2,5.5-3L453.9,329.5z"/>
	<path d="M465.1,304.3l-4.7,5.4h-3.2l3.5-5.4H465.1z M461.8,311.9v22h-4.7v-22H461.8z"/>
	<path d="M483.6,334h-4.2l-7.7-13.3V334H467v-22h4.3l7.5,13.2v-13.2h4.7V334z"/>
	<path d="M492.3,327.5c0.1,1.4,1.2,2.7,3.3,2.7c1.9,0,3.2-0.9,3.2-2.3c0-1-0.4-1.9-2.7-2.5l-2.7-0.7c-4.9-1.5-5.7-4.4-5.7-6.3
		c0-3.9,3.4-6.6,7.6-6.6c4.3,0,7.5,2.5,7.5,6.7h-4.7c0-1.5-1-2.5-2.8-2.5c-1.6,0-2.8,0.9-2.8,2.2c0,0.6,0.2,1.6,2.4,2.2l2.6,0.8
		c5.3,1.5,6.1,4.5,6,6.7c-0.1,4.4-4,6.5-7.9,6.5c-4.8,0-8-2.8-8-6.8H492.3z"/>
	<path d="M524.8,334h-6.1l-6.6-7.5v7.5h-4.7v-22h4.7v7.2l5.2-7.2h5.5l-8.3,10.9L524.8,334z"/>
	<path d="M526.9,311.9h13.9v4.1h-9.3v5h8.1v4.1h-8.1v4.7h9.6v4.1h-14.2V311.9z M534.6,304.3l-3.5,5.4h3.2l4.7-5.4H534.6z"/>
	<path d="M562.5,311.9v22h-4.7v-8.9H550v8.9h-4.7v-22h4.7v9h7.8v-9H562.5z"/>
	<path d="M577.6,311.7c6.3,0,11.2,5.1,11.2,11.3c0,6.2-4.9,11.3-11.2,11.3c-6.2,0-11.2-5.1-11.2-11.3
		C566.4,316.7,571.4,311.7,577.6,311.7z M577.6,329.7c3.6,0,6.5-3,6.5-6.7c0-3.7-2.9-6.7-6.5-6.7c-3.6,0-6.5,3-6.5,6.7
		C571.1,326.7,574,329.7,577.6,329.7z"/>
	<path d="M610.4,311.7c6.3,0,11.2,5.1,11.2,11.3c0,6.2-4.9,11.3-11.2,11.3c-6.2,0-11.2-5.1-11.2-11.3
		C599.2,316.7,604.2,311.7,610.4,311.7z M610.4,329.7c3.6,0,6.5-3,6.5-6.7c0-3.7-2.9-6.7-6.5-6.7c-3.6,0-6.5,3-6.5,6.7
		C603.9,326.7,606.7,329.7,610.4,329.7z"/>
	<path d="M637.8,322.2c2.9,0.7,4.2,3.2,4.2,5c0,3.6-2.7,6.7-7,6.7h-9.5v-22h8.8c4,0,6.5,2.4,6.5,6.1
		C640.8,319.5,640.1,321.3,637.8,322.2z M633.9,320.6c1.2,0,2-1,2-2.3c0-1.4-0.7-2.3-2.1-2.3h-3.6v4.6H633.9z M630.2,324.5v5.3h4.5
		c1.6,0,2.4-1.4,2.4-2.7c0-1.2-0.8-2.6-2.5-2.6H630.2z"/>
	<path d="M662.2,334h-5.6l-4.9-7.6h-1.1v7.6h-4.7v-22h9c5,0,7.3,3.6,7.3,7.2c0,3.1-1.7,6.2-5.5,7L662.2,334z M650.6,316.1v6.2h4
		c1.8,0,2.8-1.7,2.8-3.1c0-1.4-0.9-3.1-2.7-3.1H650.6z"/>
	<path d="M670.4,328.8l-2,5.2h-5l8.2-22h5.1l8.2,22H680l-2-5.2H670.4z M676.5,324.7l-2.3-7.7l-2.2,7.7H676.5z"/>
	<path d="M696.2,316.1h-9.7v-4.1h15.7v3.5l-10.2,14.4h10.2v4.1h-16.1v-3.5L696.2,316.1z"/>
	<path d="M718.5,326.1v-14.2h4.7v14.2c0,5-4,8.2-8.5,8.2c-4.5,0-8.6-3.2-8.6-8.2v-14.2h4.8v14.2c0,2.3,1.8,3.8,3.8,3.8
		C716.7,329.9,718.5,328.4,718.5,326.1z"/>
</g>
</svg>
