<?xml version="1.0" encoding="utf-8"?>
<!-- Generator: Adobe Illustrator 18.1.1, SVG Export Plug-In . SVG Version: 6.00 Build 0)  -->
<!DOCTYPE svg PUBLIC "-//W3C//DTD SVG 1.1//EN" "http://www.w3.org/Graphics/SVG/1.1/DTD/svg11.dtd">
<svg version="1.1" id="Layer_1" xmlns="http://www.w3.org/2000/svg" xmlns:xlink="http://www.w3.org/1999/xlink" x="0px" y="0px"
	 viewBox="0 0 800 600" enable-background="new 0 0 800 600" xml:space="preserve">
<g transform="translate(0, -25)">
	<path d="M281,285L281,285c0-8.6-1.9-16.7-4.9-24.3c-3-7.6-7.7-14.5-13.6-20.6c-5.9-6.1-12.8-10.9-20.3-14.1c-7.5-3.2-15.7-5-24.2-5
		h-0.2c-8.4,0-16.5,1.7-24,5c-7.4,3.2-14.3,8-20.3,14.1c-5.7,5.9-9.5,12.7-12.5,20.2c-3,7.5-4.1,15.6-4.1,24v32.5
		c0,8.2,1.1,16.1,4.2,23.5c3.1,7.4,7.1,14.2,12.7,20.1c6,6.1,12.7,10.7,20.1,13.9c7.4,3.2,15.3,4.8,23.8,4.8h0.2
		c8.4,0,16.5-1.5,24.1-4.8c7.5-3.2,14.3-7.9,20.2-14c5.9-6.1,10.8-13,13.8-20.6c3-7.6,4.9-15.7,4.9-24.2V315h-37v0.5
		c0,3.7-1.1,7.3-2.4,10.6c-1.3,3.3-3.4,6.2-5.7,8.7c-2.3,2.5-5.1,4.5-8.1,5.9c-3,1.4-6.3,2.2-9.8,2.2c-3.5,0-6.8-0.7-9.9-2.2
		c-3.1-1.4-5.8-3.4-8.1-5.9c-2.3-2.5-3.5-5.4-4.8-8.7c-1.3-3.3-1.3-6.8-1.3-10.6v-30.6c0-3.7,0-7.3,1.3-10.6
		c1.3-3.3,2.8-6.2,5.1-8.7c2.3-2.5,4.9-4.5,7.9-5.9c3.1-1.4,6.3-2.2,9.8-2.2c3.5,0,6.7,0.7,9.7,2.2c3,1.4,5.7,3.4,8,5.9
		c2.3,2.5,4.5,5.4,5.8,8.7c1.3,3.3,2.4,6.9,2.4,10.6v0.1H281z"/>
	<path d="M373.8,376.3h-67.3V224.1h64c32.1,0,49.3,17.7,49.3,44c0,17.3-12.2,26.9-16.9,30.1
		c6.3,3.8,19.1,11.8,19.1,33.1C421.9,360.5,401.3,376.3,373.8,376.3z M368.1,257.7h-23.7v24.8h23.7c10.4,0,13.7-6.4,13.7-12.4
		S378.5,257.7,368.1,257.7z M370.1,316h-25.6v26.7h25.6c10.4,0,13.9-7.1,13.9-13.5C384,322.8,380.5,316,370.1,316z"/>
	<path d="M448.2,376.3V224.1h38v152.2H448.2z"/>
	<path d="M603.8,376.3l-7.2-22.7h-47.5l-7.6,22.7h-39.7L558,224.1h29.3l56.2,152.2H603.8z M573.6,281.8l-13.9,40.6
		h26.9L573.6,281.8z"/>
</g>
</svg>
