<?xml version="1.0" encoding="utf-8"?>
<!-- Generator: Adobe Illustrator 18.1.1, SVG Export Plug-In . SVG Version: 6.00 Build 0)  -->
<!DOCTYPE svg PUBLIC "-//W3C//DTD SVG 1.1//EN" "http://www.w3.org/Graphics/SVG/1.1/DTD/svg11.dtd">
<svg version="1.1" id="Layer_1" xmlns="http://www.w3.org/2000/svg" xmlns:xlink="http://www.w3.org/1999/xlink" x="0px" y="0px"
	 viewBox="0 0 800 600" enable-background="new 0 0 800 600" xml:space="preserve">
<g transform="translate(0, -25)">
	<g>
		<path d="M335.2,288c-2,3-5.4,5-9.6,5c-6.5,0-11.4-5.2-11.4-11.6c0-6.5,4.9-11.7,11.4-11.7c4.1,0,7.5,1.9,9.5,4.8
			l-3.9,2.7c-1.2-1.8-3.2-3-5.5-3c-3.8,0-6.6,3.2-6.6,7.1c0,3.9,2.8,7.1,6.6,7.1c2.4,0,4.4-1.3,5.7-3.1L335.2,288z"/>
		<path d="M338.6,269.9H353v4.3h-9.6v5.2h8.4v4.2h-8.4v4.8h9.9v4.3h-14.7V269.9z"/>
		<path d="M374.6,292.6h-4.3l-7.9-13.7v13.7h-4.8v-22.7h4.4l7.8,13.6v-13.6h4.8V292.6z"/>
		<path d="M378.2,269.9h17.1v4.4h-6.1v18.4h-4.9v-18.4h-6.1V269.9z"/>
		<path d="M415.8,292.6H410l-5.1-7.8h-1.1v7.8h-4.8v-22.7h9.3c5.1,0,7.5,3.7,7.5,7.4c0,3.2-1.8,6.4-5.7,7.2
			L415.8,292.6z M403.8,274.2v6.4h4.1c1.9,0,2.9-1.7,2.9-3.2c0-1.4-0.9-3.2-2.7-3.2H403.8z"/>
		<path d="M419.9,269.9h14.4v4.3h-9.6v5.2h8.4v4.2h-8.4v4.8h9.9v4.3h-14.7V269.9z"/>
		<path d="M447,269.9h14.2v4.3h-9.4v5.2h7.4v4.2h-7.4v9.1H447V269.9z"/>
		<path d="M474.7,269.6c6.5,0,11.5,5.2,11.5,11.7c0,6.4-5.1,11.6-11.5,11.6c-6.4,0-11.5-5.2-11.5-11.6
			C463.2,274.9,468.3,269.6,474.7,269.6z M474.7,288.2c3.8,0,6.7-3.1,6.7-6.9c0-3.8-3-6.9-6.7-6.9c-3.8,0-6.7,3.1-6.7,6.9
			C468,285.1,470.9,288.2,474.7,288.2z"/>
		<path d="M507.1,292.6h-5.8l-5.1-7.8h-1.1v7.8h-4.8v-22.7h9.3c5.1,0,7.5,3.7,7.5,7.4c0,3.2-1.8,6.4-5.7,7.2
			L507.1,292.6z M495.1,274.2v6.4h4.1c1.9,0,2.9-1.7,2.9-3.2c0-1.4-0.9-3.2-2.7-3.2H495.1z"/>
		<path d="M532,280.5c3,0.8,4.3,3.3,4.3,5.2c0,3.8-2.7,7-7.3,7h-9.8v-22.7h9.1c4.1,0,6.7,2.4,6.7,6.3
			C535.1,277.7,534.3,279.6,532,280.5z M527.9,278.9c1.3,0,2.1-1,2.1-2.3c0-1.4-0.7-2.4-2.1-2.4h-3.8v4.7H527.9z M524.1,282.9v5.5
			h4.6c1.6,0,2.4-1.5,2.4-2.8c0-1.3-0.8-2.7-2.5-2.7H524.1z"/>
		<path d="M545.1,269.9v22.7h-4.8v-22.7H545.1z"/>
		<path d="M560.6,269.6c6.5,0,11.5,5.2,11.5,11.7c0,6.4-5.1,11.6-11.5,11.6c-6.4,0-11.5-5.2-11.5-11.6
			C549.1,274.9,554.2,269.6,560.6,269.6z M560.6,288.2c3.8,0,6.7-3.1,6.7-6.9c0-3.8-3-6.9-6.7-6.9c-3.8,0-6.7,3.1-6.7,6.9
			C553.9,285.1,556.9,288.2,560.6,288.2z"/>
		<path d="M595.3,269.9h4.1l2.8,22.7h-4.8l-1.6-13.6l-5.3,11h-3.7l-5.3-11l-1.6,13.6h-4.8l2.8-22.7h4l6.9,14.6
			L595.3,269.9z"/>
		<path d="M606.3,269.9h14.4v4.3h-9.6v5.2h8.4v4.2h-8.4v4.8h9.9v4.3h-14.7V269.9z"/>
		<path d="M625.2,292.6v-22.7h8.9c6.5,0,10.3,4.9,10.3,11.4c0,6.4-3.7,11.3-10.3,11.3H625.2z M630.1,288.2h4.1
			c3.6,0,5.4-3.2,5.4-6.9c0-3.8-1.8-7-5.4-7h-4.1V288.2z"/>
		<path d="M653.4,269.9v22.7h-4.8v-22.7H653.4z"/>
		<path d="M678.3,288c-2,3-5.4,5-9.6,5c-6.5,0-11.4-5.2-11.4-11.6c0-6.5,4.9-11.7,11.4-11.7c4.1,0,7.5,1.9,9.5,4.8
			l-3.9,2.7c-1.2-1.8-3.2-3-5.5-3c-3.8,0-6.6,3.2-6.6,7.1c0,3.9,2.8,7.1,6.6,7.1c2.4,0,4.4-1.3,5.7-3.1L678.3,288z"/>
		<path d="M686,287.2l-2,5.4h-5.1l8.4-22.7h5.2l8.4,22.7h-5.1l-2-5.4H686z M692.3,283.1l-2.4-7.9l-2.3,7.9H692.3z"/>
		<path d="M703.5,269.9h4.8v18.5h8.5v4.3h-13.3V269.9z"/>
		<path d="M320.4,309.5v22.7h-4.8v-22.7H320.4z"/>
		<path d="M344.9,309.5h4.1l2.8,22.7h-4.8l-1.6-13.6l-5.3,11h-3.7l-5.3-11l-1.6,13.6h-4.8l2.8-22.7h4l6.9,14.6
			L344.9,309.5z"/>
		<path d="M360.1,326.8l-2,5.4h-5.1l8.4-22.7h5.2l8.4,22.7h-5.1l-2-5.4H360.1z M366.4,322.6l-2.4-7.9l-2.3,7.9H366.4
			z"/>
		<path d="M392.4,316c-1.3-1.4-3-2.3-5-2.3c-3.8,0-6.8,3.2-6.8,7.2c0,3.9,3,7.2,6.8,7.2c2.4,0,5.5-1.5,5.5-3.9h-6.1
			v-3.9h11.7c0,8.5-4.5,12.3-11.1,12.3c-6.5,0-11.6-5.2-11.6-11.6c0-6.5,5.1-11.7,11.6-11.7c3.5,0,6.6,1.5,8.5,3.7L392.4,316z"/>
		<path d="M402,309.5h14.4v4.3h-9.6v5.2h8.4v4.2h-8.4v4.8h9.9v4.3H402V309.5z"/>
		<path d="M432.3,326.8l-2,5.4h-5.1l8.4-22.7h5.2l8.4,22.7h-5.1l-2-5.4H432.3z M438.6,322.6l-2.4-7.9l-2.3,7.9H438.6
			z"/>
		<path d="M466.8,332.2h-4.3l-7.9-13.7v13.7h-4.8v-22.7h4.4L462,323v-13.6h4.8V332.2z"/>
		<path d="M476.4,326.8l-2,5.4h-5.1l8.4-22.7h5.2l8.4,22.7h-5.1l-2-5.4H476.4z M482.7,322.6l-2.4-7.9l-2.3,7.9H482.7
			z"/>
		<path d="M493.9,309.5h4.8v18.5h8.5v4.3h-13.3V309.5z"/>
		<path d="M513.6,332.2v-10.3l-8.8-12.4h5.7l5.5,8.5l5.5-8.5h5.7l-8.8,12.5v10.2H513.6z"/>
		<path d="M532.5,325.5c0.1,1.5,1.2,2.7,3.4,2.7c1.9,0,3.3-0.9,3.3-2.4c0-1-0.4-1.9-2.7-2.6l-2.7-0.8
			c-5-1.6-5.9-4.5-5.9-6.5c0-4.1,3.5-6.8,7.8-6.8c4.4,0,7.7,2.6,7.7,7h-4.8c0-1.5-1-2.6-2.9-2.6c-1.7,0-2.9,0.9-2.9,2.3
			c0,0.6,0.2,1.7,2.4,2.3l2.7,0.9c5.5,1.6,6.3,4.7,6.2,6.9c-0.1,4.5-4.2,6.7-8.2,6.7c-4.9,0-8.2-2.9-8.2-7H532.5z"/>
		<path d="M552.9,309.5v22.7h-4.8v-22.7H552.9z"/>
		<path d="M561.9,325.5c0.1,1.5,1.2,2.7,3.4,2.7c1.9,0,3.3-0.9,3.3-2.4c0-1-0.4-1.9-2.7-2.6l-2.7-0.8
			c-5-1.6-5.9-4.5-5.9-6.5c0-4.1,3.5-6.8,7.8-6.8c4.4,0,7.7,2.6,7.7,7h-4.8c0-1.5-1-2.6-2.9-2.6c-1.7,0-2.9,0.9-2.9,2.3
			c0,0.6,0.2,1.7,2.4,2.3l2.7,0.9c5.5,1.6,6.3,4.7,6.2,6.9c-0.1,4.5-4.2,6.7-8.2,6.7c-4.9,0-8.2-2.9-8.2-7H561.9z"/>
	</g>
	<g>
		<path d="M142.6,295v0.1c0-3.4-0.7-6.7-1.9-9.8c-1.2-3.1-3.1-5.9-5.4-8.3c-2.4-2.4-5.1-4.1-8.2-5.4c-3-1.3-6.3-1.7-9.7-1.7h-0.1
			c-3.4,0-6.6,0.4-9.6,1.7c-3,1.3-5.7,3.1-8.2,5.5c-2.3,2.4-3.9,5-5.1,8.1c-1.2,3-1.7,6.2-1.7,9.6v13.1c0,3.3,0.5,6.5,1.8,9.5
			c1.2,3,2.9,5.7,5.2,8.1c2.4,2.4,5.1,4.3,8.1,5.6c3,1.3,6.2,1.9,9.6,1.9h0.1c3.4,0,6.7-0.6,9.7-1.9c3-1.3,5.8-3.2,8.1-5.6
			c2.4-2.4,4.3-5.2,5.5-8.3c1.2-3.1,1.9-6.3,1.9-9.7V307h-15v0.4c0,1.5-0.3,2.9-0.9,4.3c-0.5,1.3-1.3,2.5-2.2,3.5
			c-0.9,1-2,1.8-3.2,2.4c-1.2,0.6-2.5,0.9-3.9,0.9c-1.4,0-2.7-0.3-4-0.9c-1.2-0.6-2.3-1.4-3.3-2.4c-0.9-1-1.4-2.2-2-3.5
			c-0.5-1.3-0.6-2.8-0.6-4.3v-12.3c0-1.5,0-2.9,0.6-4.3c0.5-1.3,1.2-2.5,2.1-3.5c0.9-1,2-1.8,3.2-2.4c1.2-0.6,2.5-0.9,3.9-0.9
			c1.4,0,2.7,0.3,3.9,0.9c1.2,0.6,2.3,1.4,3.2,2.4c0.9,1,1.7,2.2,2.2,3.5c0.5,1.3,0.9,2.8,0.9,4.3V295H142.6z"/>
		<path d="M180,331.9h-27.1v-61.3h25.8c12.9,0,19.8,7.1,19.8,17.7c0,7-4.9,10.8-6.8,12.1c2.5,1.5,7.7,4.7,7.7,13.3
			C199.4,325.5,191.1,331.9,180,331.9z M177.8,284.1h-9.5v10h9.5c4.2,0,5.5-2.6,5.5-5C183.3,286.7,182,284.1,177.8,284.1z
			 M178.5,307.6h-10.3v10.8h10.3c4.2,0,5.6-2.8,5.6-5.4C184.1,310.4,182.7,307.6,178.5,307.6z"/>
		<path d="M210,331.9v-61.3h15.3v61.3H210z"/>
		<path d="M272.6,331.9l-2.9-9.1h-19.1l-3.1,9.1h-16l22.6-61.3H266l22.6,61.3H272.6z M260.5,293.9l-5.6,16.4h10.8
			L260.5,293.9z"/>
	</g>
</g>
</svg>
