<?xml version="1.0" encoding="utf-8"?>
<!-- Generator: Adobe Illustrator 18.1.1, SVG Export Plug-In . SVG Version: 6.00 Build 0)  -->
<!DOCTYPE svg PUBLIC "-//W3C//DTD SVG 1.1//EN" "http://www.w3.org/Graphics/SVG/1.1/DTD/svg11.dtd">
<svg version="1.1" id="Layer_1" xmlns="http://www.w3.org/2000/svg" xmlns:xlink="http://www.w3.org/1999/xlink" x="0px" y="0px"
	 viewBox="0 0 800 600" enable-background="new 0 0 800 600" xml:space="preserve">
<g transform="translate(0, 25)">
	<path d="M230.4,200H243l7.9,30.2l7.8-30.2h12.7l-15.2,49.6h-10.6L230.4,200z"/>
	<path d="M301.6,238.2H286l-4.2,11.4h-12.9l18.3-49.6h13.1l18.2,49.6h-12.7L301.6,238.2z M289.2,227.8h9.3l-4.8-16.3L289.2,227.8z"
		/>
	<path d="M323.2,249.6V200h20.5c11.7,0,17,8.3,17,16.6c0,7.1-3.8,13.9-11.9,15.9l12.1,17.1h-14L336.4,233h-1.1v16.6H323.2z
		 M335.3,210.5v12.2h7.9c4,0,5.4-3.2,5.4-6.1s-1.4-6-5.4-6H335.3z"/>
	<path d="M369.5,200h12v49.6h-12V200z"/>
	<path d="M418.9,238.2h-15.6l-4.2,11.4h-12.9l18.3-49.6h13.1l18.2,49.6h-12.7L418.9,238.2z M406.6,227.8h9.3l-4.8-16.3L406.6,227.8z
		"/>
	<path d="M478.3,200v49.6h-10.5l-15.2-27.1v27.1h-12V200h10.9l14.8,26.7V200H478.3z"/>
	<path d="M485.8,210.5V200h37.7v10.5h-12.8v39.1h-12v-39.1H485.8z"/>
	<path d="M553.5,238.2h-15.6l-4.2,11.4h-12.9l18.3-49.6h13.1l18.2,49.6h-12.7L553.5,238.2z M541.1,227.8h9.3l-4.8-16.3L541.1,227.8z
		"/>
</g>
</svg>
